<svg id="Layer_1" data-name="Layer 1" xmlns="http://www.w3.org/2000/svg" viewBox="0 0 1827 1200"><title>aaArtboard 1</title><path d="M847,827.76c-3.68-3.54-8.24-7.78-13.07-8.5l-.41.51c.48.77.23,1.78-1.11,3.3-4.73,5.35-9,11.09-13.75,16.44-3.12,3.53-5.13,3-6.59-1.54-2-6.17-3.83-12.38-5.73-18.58a29.37,29.37,0,0,1-1.1-4.18,33.43,33.43,0,0,1-1.8-4.87,4.69,4.69,0,0,1-3.3,1.23,5.82,5.82,0,0,1-1.36-.17,24.41,24.41,0,0,0-2.4,1c-.65,1.81-2.18,4-2.34,5.86s1.27,3.95,1.64,5.62c.81,3.7.87,7.47,1.71,11.21,0,.19.06.37.08.55a22.3,22.3,0,0,1,2.85,7.17c1.3,5.06,4.47,9.13,6.1,13.92a4.93,4.93,0,0,1,2.26-.51c.19,0,.37,0,.56,0a6.31,6.31,0,0,1,.88,0c3.56.17,8.54,2.26,12,1.09,3.17-1.09,5.43-5.39,8.06-7.42,5.61-4.34,12.89-8.27,17.48-13.92a4.91,4.91,0,0,1-.61-2.45C847,831.61,847.06,829.69,847,827.76Z"/><path d="M786,854c-.17-.54-.35-1.08-.53-1.61a5.1,5.1,0,0,1-1.14.13c-.31,1-1.46,1.25-2.68,1.32-4.31.25-8.62.48-14.07.78-6.25-.92-13.64-2-21-3.13-1.68-.25-2.69-1-2.6-2.31a1.48,1.48,0,0,1-.72-.26l-.78.37c-.65,2.64-2,4-3.62,6.06-2,2.51-1.17,5-1.16,8.13,0,.61-.07,1.35-.15,2.14a1.58,1.58,0,0,1,.31.32c1.56,2.32,2.94,5.23,6.11,5.22a1.37,1.37,0,0,1,1.26.71,5.29,5.29,0,0,1,2.61-1c8.7-.82,17.2,1.88,25.91,1.31,3.92-.26,6.61-.63,8.95-3.83a17.36,17.36,0,0,0,3.05-8.46c-.12-1.27-.23-2.52-.23-3.67A5,5,0,0,1,786,854Z"/><path d="M1406.3,803c-.18-.81-.35-1.62-.51-2.44a25.23,25.23,0,0,1-7.41-10.93,26.26,26.26,0,0,1-2.89-10.9c0-.16,0-.31,0-.47l-.49-.2c-7.4-15.62-13.8-31.66-19.84-47.84a16.19,16.19,0,0,1-.89-4.1c-.39-.59-.76-1.2-1.11-1.82-.09.37-.18.75-.26,1.14-1.15-2.67-2.34-5.32-3.45-8l-4.56-11.13a23.29,23.29,0,0,1-2.71-6.65q-2.87-7.07-5.68-14.16c-.32-.83-3-2.94.63-3.29-.06-.13-.12-.27-.17-.41-13.29-23.7-21.57-49.62-32.9-74.2-7.11-15.42-13.79-31-20.85-46.49a14.78,14.78,0,0,1-.64-1.64,26.32,26.32,0,0,1-3-9.39c-.3-.6-.59-1.21-.87-1.82a23.11,23.11,0,0,1-1.4-3.15c-1.9-3.09-4.31-5.88-5.76-9.23a23.87,23.87,0,0,1-3.25-11.29c-8-15-14.51-31-20.92-46.64a17.58,17.58,0,0,1-1.3-6.52,27.14,27.14,0,0,1-.92-4.88,6.19,6.19,0,0,1-1.63-3.07c-1.24-4.83-2.82-9.57-4.29-14.34-1-3.28-2.38-6.23.46-9.7,1.77-2.17.44-5.4-2-6.92-2.25-1.39-3-3.25-3.72-5.55-4-13.57-8.05-27.11-12.08-40.66a18.67,18.67,0,0,1-.62-2.42c-.7-4.63,0-6.77,3.24-8q-.67-2.62-1.13-5.47c-3,.42-4.52-.19-5.43-3.28-2.29-7.8-4.09-15.9-7.57-23.16-6.17-12.86-8.67-26.82-13.45-40.06-1.21-3.33-1.15-5.86,1.38-8.56s1.27-5.91-2.34-6.53a10.08,10.08,0,0,1-4.54-1.86c-10.79,6.2-23.26,8.55-35.75,8.14a10.19,10.19,0,0,1-3.42,6.56c-2.3,2.21-2.07,5.83.79,6.67,5.52,1.62,6.76,5.58,8,10.22,1.77,6.55.92,7.9-6.07,8.26-2,.1-4.34-.52-5.46,1.57-1.65,3.1-4.47,3.47-7.25,3.3-5.92-.36-12.32,2.33-17.64-2.55-.48-.44-1.62-.27-2.44-.21-8.61.68-17.23,1.4-25.84,2.1q-29.32,2.38-58.65,4.76c-14.26,1.13-28.53,2.16-42.78,3.31-19.06,1.53-38.11,3.16-57.17,4.69-14.26,1.14-28.52,2.19-42.78,3.29-20.06,1.56-40.12,3.17-60.18,4.71-14.93,1.15-29.87,2.17-44.8,3.35-18.9,1.49-37.8,3.11-56.7,4.64-19.9,1.61-39.79,3.33-59.71,4.71-9.34.65-18.8,2.74-28-1.65-3.84-1.84-5.51-4.87-3.7-8.91a3.53,3.53,0,0,0,.24-1.07,85,85,0,0,1-11.81.75c-5.89,3.13-12.08,6.17-18.57,7.24a21.08,21.08,0,0,1,1.45,8.27c0,.22,0,.44,0,.65,1.47-.21,2.23,1.08,3.22,4.13,2.47,7.59,4.87,15.2,7.27,22.82.35,1.1.59,2.24.83,3.15a17.38,17.38,0,0,1-2.73,7.15q-25,41.2-50,82.43a7.39,7.39,0,0,1-2.46,2.86,18.89,18.89,0,0,1-6.27,9.35,18.82,18.82,0,0,1-6.18,9.77c-.11.24-.24.48-.36.72a18.14,18.14,0,0,1-5.09,9.63,18.54,18.54,0,0,1-5,8.54c-.28.38-.58.75-.9,1.12-.06.18-.15.35-.21.53a18.71,18.71,0,0,1-8.09,12.89,18.82,18.82,0,0,1-8.27,12.71A18.46,18.46,0,0,1,541.11,571a22.56,22.56,0,0,1-2.1,3.94c.88,1.17.38,2.58-.83,4.54q-54.72,89-109.27,178.09c-.86,1.4-1.56,2.93-3.42,4.05-.14-.36-.26-.72-.39-1.08a23.05,23.05,0,0,1-2,3.34l.06.26c.65,2.49-.88,4.56-2.44,6.3a18,18,0,0,1-1.73,1.67,24.38,24.38,0,0,1-7.77,10.52,25.08,25.08,0,0,1-4.06,4.85,25.35,25.35,0,0,1-12,11.69,26,26,0,0,1-5.64,3,24.82,24.82,0,0,1-13.85,6,2.64,2.64,0,0,1-2.24,1.65,26.66,26.66,0,0,1,1.4,4.24,3,3,0,0,1,.45.12c1.86-1.15,4.59-1.35,7.25-1.25,3.17-3.5,9.75-4.7,13.35-2a15.54,15.54,0,0,1,1.89,1.69c6.54-.29,13.31.55,11.69,7.64-1.12,4.9-5.92,6.1-10.63,5.81a15,15,0,0,1-1.63,1.8,10.45,10.45,0,0,1-16.1-2,3,3,0,0,1-1.4.34,2.9,2.9,0,0,1-1.4-.34,3,3,0,0,1-3.09-.18v2.71a2.91,2.91,0,0,1-.27,1.22c.57.36,1.13.74,1.71,1.09a3.34,3.34,0,0,1,.87-.11c5.88,0,13.53.33,18.91,2.82a2.75,2.75,0,0,1,1.19,1,26.07,26.07,0,0,1,4.45.7c3.3.88,6.2,3.07,9.64,3.32a3,3,0,0,1,2.53,1.7,23.69,23.69,0,0,1,9.76,3.64,4.46,4.46,0,0,1,1.08,1.09l1.52.33c.48,0,.95.11,1.4.13,3.11.15,6.2.55,9.3.83a49.91,49.91,0,0,1,6.45-.36,45.3,45.3,0,0,1,6,.75A44,44,0,0,1,461.44,849a40.19,40.19,0,0,0,6.58.64,3.65,3.65,0,0,1,3.22,1.72c14.33,1.7,28.71,3.06,43,4.93,28,3.66,56,7.22,84,11.52,17.42,2.69,35,4.26,52.41,6.48,3.55.45,7.1.91,10.65,1.32,4.07-1,8.22-.75,12.67-.05,5,.78,9.91,1.77,14.83,2.82a5.24,5.24,0,0,1,1.18-.3c5.39-.64,8.8.76,13.74,2.27l.37.1c.78-.05,1.56-.1,2.32-.12a4.55,4.55,0,0,1,3.39,1.22l.32,0a5.15,5.15,0,0,1,3.21.3h.24a5.31,5.31,0,0,1,1.7-.28,5,5,0,0,1,2.34.55l1.46.09a4.76,4.76,0,0,1-1.07-3c-.13-8.47-1.41-16.41,2.62-24.27l.21-.36a5,5,0,0,1-3.82-3.87c-14.53-1.23-29-1.91-43.62-1.94a23.43,23.43,0,0,1-19.34-10.19q-33.37-3.36-66.82-6c-21.87-1.73-43.7-4-65.55-6a26.87,26.87,0,0,1-3.4-.76c.45-1.12.91-2.31-1.13-1.73-9.66,2.73-18.92.26-28.19-2.13-.46.19-.93.56-1.38.55a193.92,193.92,0,0,1-38.22-5.21,5.66,5.66,0,0,1-1.75-.72c-1.12-.11-2.25-.24-3.36-.4a4,4,0,0,1-.48,1.24c-1.77,3-2.5,6.48-3.86,9.67a3.84,3.84,0,0,1-3.46,2c-12.46-1.4-19-16.5-18-27.49a30.63,30.63,0,0,1,8.75-19,11,11,0,0,1,7.35-3.56c2.39-.1,4.49.63,6.75.32a3.15,3.15,0,0,1,1.37-2.88c6.68-5.22,10-14.67,14.38-21.72,5.36-8.55,10.44-17.27,15.44-26,5.88-10.29,11.66-20.63,17.66-30.84a240,240,0,0,1,13.7-22.38,132.83,132.83,0,0,1,11.59-19.21,134.48,134.48,0,0,0,8.19-12.91c2.66-4.57,6-8.71,8.61-13.32,3.32-5.94,4.95-12.68,10.51-16.82.1-.19.21-.37.32-.55-.84-2.26.25-5.29,3.23-5.52l.14-.24a4,4,0,0,1,2.46-4.74,19.23,19.23,0,0,1,.86-9A171.33,171.33,0,0,1,563,564.65c4-6.93,9-13.31,12.51-20.49,4.36-8.83,10-16,18.61-20.24a4,4,0,0,1,2.41-4.78,3.64,3.64,0,0,1,1.72-2,3.74,3.74,0,0,1,2.29-3.06,4.48,4.48,0,0,1,.1-2.09,4.2,4.2,0,0,1,1.45-4.63,3.62,3.62,0,0,1,3.5-2.27,4.89,4.89,0,0,1,.68.07,3.42,3.42,0,0,1,1.39-1.27c-.18-1.17.47-2.42,1.38-4,13.05-22.66,25.93-45.41,38.87-68.13.49-.87,1-1.76,1.52-2.58s1-2.35,2.45-2.17,1.55,1.55,1.9,2.65q2.7,8.56,5.41,17.13,35.88,113.84,71.75,227.68c11.24,35.72,22.3,71.49,33.42,107.24a9.8,9.8,0,0,1,.6,3.56,5.16,5.16,0,0,1,1.06-.1,4.57,4.57,0,0,1,4.61,3.43,5.06,5.06,0,0,1,2.32-.53,5.88,5.88,0,0,1,1.14.11c1.35-4.27,7.09-3.54,9-.11a4.8,4.8,0,0,1,2.77-.81,5.35,5.35,0,0,1,1.54.22,4.87,4.87,0,0,1,8.21.57,4.19,4.19,0,0,1,1-.41c0-.12,0-.24,0-.37-.84-.93-1.47-2.53-2.26-5Q779.49,735,764.69,687.83q-26.54-84.86-53-169.75-11.9-38.18-23.64-76.37c-1.06-3.44-2.46-6.3-5.61-8.5-2.48-1.73-5.1-3.92-1.81-7.91,1.4-1.69.53-5.12-.37-7.73-1.9-5.5-3.74-11-5.48-16.59-1.43-4.57-.44-6.39,4.15-6.81,12.07-1.12,24.19-1.82,36.26-3.05,8.12-.83,16.19-1.65,24.12.56a23.9,23.9,0,0,1,12.34-3.58,23.14,23.14,0,0,1,11.53,3c12.58-2.13,25.57-.94,38.22-2.67,14-1.92,28.16-2.14,42.23-3.34q24.83-2.14,49.6-4.74c3.23-.34,6.7.64,9.7-1.35,14.17.05,28.17-2.09,42.23-3.34,18-1.61,36-3.77,54.08-5.53,20.36-2,40.73-4,61.13-5.6,14.26-1.13,28.48-3.13,42.85-2.53a10,10,0,0,1,4.62.9,22.94,22.94,0,0,1,15.66-1.7,21.29,21.29,0,0,1,2.64-.18,24.07,24.07,0,0,1,4.11.36c.5-.27,1-.53,1.53-.76l-6.49-1,0-.36c19.65-1.67,39.29-3.38,59-5,7.33-.6,12.85,6.07,11.52,13.73a2.58,2.58,0,0,1-.63,1.44,25.91,25.91,0,0,1,2.69,7,8.16,8.16,0,0,1,1.75,2.6c3.37,7.19,2.8,12.95-2.91,19.34-20.21,22.59-39.84,45.69-59.59,68.68q-40.2,46.82-80.25,93.76-33.94,39.68-67.9,79.32Q956.44,678.14,923.86,716q-35.24,41.19-70.36,82.47a7.09,7.09,0,0,1-2.14,1.8c-.41.52-.8,1-1.2,1.57a4,4,0,0,1,2.19-.46c3.21.3,6.18,1.56,7.14,4.92a8.17,8.17,0,0,1,.28,2.25c0,.07,0,.13,0,.2.43.1,1.08.39,1.17.41a8.62,8.62,0,0,0,2-.05c3.83-.29,5.36,3.14,4.62,6.07a46.51,46.51,0,0,1,8.58,7.63,5.69,5.69,0,0,1,.92,1.63c.19-.18.39-.37.59-.54-.92-2.49.09-4.7,2.83-7.82q7.43-8.45,14.7-17,30.48-35.73,60.93-71.48,37.51-43.85,75.14-87.6,40.32-47,80.63-94.07,41.64-48.56,83.3-97.07c4.56-5.31,9.06-10.66,13.73-15.87,1.47-1.64,3.84-4.27,5.58-1.12,2.07,3.72,4.61,7.71,2.69,12.6-1.39,3.56-.64,6.73,3.6,7.74,2.2.52,2.93,1.93,3.49,3.74,1.84,5.89,3.7,11.76,5.52,17.65.33,1.08,1.09,2.26.33,3.35a2.36,2.36,0,0,1-.58.55,26.24,26.24,0,0,1,3.7,12.37,20.07,20.07,0,0,1-.09,3c2.63.4,4.69,1.8,6.68,2.94,3.54,2,4.49,6.6,5.12,10.42,0,.05,0,.1,0,.14a25.56,25.56,0,0,1,5.86,9.85,26,26,0,0,1,6.09,15.68c0,.15,0,.3,0,.45a25.81,25.81,0,0,1,7.09,15.31,25.85,25.85,0,0,1,7.34,16.23,26.18,26.18,0,0,1,2,6.07s0,0,0,0a6.33,6.33,0,0,1,1.67,2.51c4.33,9.38,8.73,18.72,13,28.11,15.34,33.66,30.84,67.23,47.23,100.4,12,24.33,23.83,48.77,35.76,73.15a39.1,39.1,0,0,1,1.86,5.23,25.62,25.62,0,0,1,9.82,19.22,17.36,17.36,0,0,1,0,1.91,26.08,26.08,0,0,1,5.18,14.52,19.07,19.07,0,0,1,0,2.14c6.09-4.46,12-9.1,18.52-13l.19-.11Zm-999.72,7a3,3,0,0,1-.72-.06c-2-.37-3.84-1.37-5.85-1.46-3.36-.15-4.11-5-.8-5.89,1.82-.52,4.07-1.45,5-3.22a3,3,0,0,1,4.1-1.07A19.92,19.92,0,0,0,411,800a3.07,3.07,0,0,1,1.38,3.39,27.13,27.13,0,0,0-.38,4.76C411.92,811.18,408.11,811.79,406.58,810Zm14.79,17c1.4,1.52,3.28,2.58,4.8,4a3.15,3.15,0,0,1,.25.28c2.62,1.27,2.25,5.94-1.16,5.69a24.64,24.64,0,0,1-7.85-1.79c-2.55-1-5-3-7.86-2.68-3.38.36-4.06-5.23-.79-5.89s4.87-4.19,8.72-2.9C419.23,824.27,420.17,825.72,421.37,827ZM907.23,377.87A8.37,8.37,0,0,0,903,379c-13.51-.19-26.85,2-40.27,3.06-15.91,1.2-31.79,2.84-47.71,4-17.76,1.32-35.49,2.87-53.31,2.94a5,5,0,0,1-3.5-.95L950.66,373l.06.68Q929,375.77,907.23,377.87Z"/></svg>